<svg xmlns="http://www.w3.org/2000/svg" viewBox="-2 -7 382 150">
  <defs>
    <style>
      .cls-1, .cls-2, .cls-3, .cls-4, .cls-5 {
        fill: none;
      }

      .cls-1, .cls-4, .cls-6 {
        stroke: #36f;
      }

      .cls-1, .cls-6 {
        stroke-width: 2px;
      }

      .cls-7, .cls-6 {
        fill: #fff;
      }

      .cls-8 {
        fill: blue;
      }

      .cls-9, .cls-10 {
        fill: #ccf;
      }

      .cls-3 {
        stroke: blue;
      }

      .cls-3, .cls-4, .cls-5 {
        stroke-linecap: round;
        stroke-linejoin: round;
      }

      .cls-3, .cls-5 {
        stroke-width: 6px;
      }

      .cls-10, .cls-4, .cls-11 {
        stroke-width: 4px;
      }

      .cls-10, .cls-11 {
        stroke: #171b27;
      }

      .cls-5 {
        stroke: #fff;
      }

      .cls-11 {
        fill: #33f;
      }
    </style>
  </defs>
  <g id="_前往使用defult" data-name="前往使用defult">
    <path class="cls-11" d="M15.34,37.04C30.34,12.04,70.34,6.04,95.34,16.04c30-9,63-7,86,0,28-9,65-7,84,3,31-3,67,10,72,38,9,25-13,54-42,53-24,14-56,6-76,2-26,11-63,4-83,0-30,11-65,5-84-2-28,2-47-22-39-44-7-11-5-20,2-29h0Z" />
    <path class="cls-1" d="M7.71,32.59C23.58,3.37,65.89-3.64,92.33,8.04c31.73-10.52,66.64-8.18,90.97,0,29.62-10.52,68.75-8.18,88.85,3.51,32.79-3.51,70.87,11.69,76.16,44.42,9.52,29.22-13.75,63.12-44.42,61.95-25.39,16.36-59.23,7.01-80.39,2.34-27.5,12.86-66.64,4.68-87.79,0-31.73,12.86-68.75,5.84-88.85-2.34-29.62,2.34-49.71-25.72-41.25-51.43C-1.79,53.63.32,43.11,7.73,32.59h-.02,0Z" />
    <g id="arrow">
      <path class="cls-2" d="M264.7,53.79h27.28v27.28h-27.28v-27.28Z" />
      <path class="cls-5" d="M261.09,63.45h25.2" />
      <path class="cls-5" d="M275.49,74.25l10.8-10.8" />
      <path class="cls-5" d="M275.49,52.65l10.8,10.8" />
    </g>
  </g>
</svg>