<?xml version="1.0" encoding="UTF-8"?>
<svg id="_圖層_1" data-name="圖層 1" xmlns="http://www.w3.org/2000/svg" viewBox="690 637 93 47">
  <defs>
    <style>
      .cls-1 {
        fill: #fff;
      }

      .cls-2 {
        fill: blue;
      }

      .cls-3 {
        fill: #ccf;
      }
    </style>
  </defs>
  <g id="_1-defult" data-name="+1-defult">
    <g>
      <polygon class="cls-1" points="582.27 675.51 582.3 650.53 589.96 644.1 624.9 644.04 659.79 642.22 666.47 650.48 667.88 675.5 659.83 682.66 624.89 683 589.98 683.53 582.27 675.51"/>
      <path class="cls-2" d="M659.56,642.73l6.41,7.94,1.39,24.61-7.73,6.87-34.75.34-34.69.53-7.43-7.72.03-24.55,7.34-6.16,34.76-.06h.03s.03,0,.03,0l34.61-1.81h0ZM660.02,641.7l-35.12,1.84-35.12.06-7.97,6.69-.03,25.42,8.01,8.32,35.12-.53,35.12-.35,8.37-7.44-1.43-25.42-6.94-8.59h0Z"/>
    </g>
    <g>
      <path class="cls-2" d="M612.62,668.31v-4.45h-4.22v-2.21h4.22v-4.47h2.29v4.47h4.24v2.21h-4.24v4.45h-2.29Z"/>
      <path class="cls-2" d="M626.46,670.62v-2.5h3.36v-9.41h-2.83v-1.93c.78-.15,1.46-.33,2.03-.54.57-.2,1.1-.46,1.59-.77h2.29v12.64h2.92v2.5h-9.34Z"/>
    </g>
  </g>
  <g id="_1-hover" data-name="+1-hover">
    <g>
      <polygon class="cls-3" points="693.66 671.43 693.7 646.45 701.35 640.03 736.29 639.96 771.19 638.14 777.86 646.41 779.27 671.42 771.22 678.58 736.29 678.92 701.38 679.45 693.66 671.43"/>
      <path class="cls-2" d="M770.96,638.65l6.41,7.94,1.39,24.61-7.73,6.87-34.75.34-34.69.53-7.43-7.72.03-24.55,7.34-6.16,34.76-.06h.03s.03,0,.03,0l34.61-1.81h0ZM771.42,637.63l-35.12,1.84-35.12.06-7.97,6.69-.03,25.42,8.01,8.32,35.12-.53,35.12-.35,8.37-7.44-1.43-25.42-6.94-8.59h0Z"/>
    </g>
    <g>
      <path class="cls-2" d="M724.01,664.23v-4.45h-4.22v-2.21h4.22v-4.47h2.29v4.47h4.24v2.21h-4.24v4.45h-2.29Z"/>
      <path class="cls-2" d="M737.85,666.54v-2.5h3.36v-9.41h-2.83v-1.93c.78-.15,1.46-.33,2.03-.54.57-.2,1.1-.46,1.59-.77h2.29v12.64h2.92v2.5h-9.34Z"/>
    </g>
  </g>
</svg>